<svg width="700" height="700" viewBox="0 0 40 40" fill="none" xmlns="http://www.w3.org/2000/svg">
    <path id="tail"
        d="M 23 20 q 5 -8 10 -9 c 4 -1 5 1 3 3 q -4 3 -4 6 q 0 3 4 6 c 2 2 1 4 -3 3 q -5 -1 -10 -9"
        fill="#ca9d39" />
    <path id="fin-top" d="M 9 11 c 5 -8 18 2 19 5 q 1 -1 2 0 M 4 16" fill="#ca9d39" />
    <path id="fin-bottom" d="M 12 29 c 14 6 12 0 5 -1" fill="#ca9d39" />
    <path id="body" d="M 13 10 a 1 1 0 0 0 0 20 c 23 0 23 -20 0 -20" fill="#fecb5c" />
    <ellipse id="left-eye" cx="8" cy="18" rx="1" ry="1.5" fill="#000" />
    <ellipse id="right-eye" cx="14" cy="18" rx="1" ry="1.5" fill="#000" />
    <path id="left-eyebrow" d="M 6 14.5 q 1 -1 3 0" stroke="#000" stroke-width="0.75"
        stroke-linecap="round" />
    <path id="right-eyebrow" d="M 12.65 17 q 1 -1 3 0" stroke="#000" stroke-width="0.75"
        stroke-linecap="round" />
    <path id="mouth" d="M 10 24 q 1 -1 3 0.5" stroke="#000" stroke-width="0.75"
        stroke-linecap="round" />
    <path id="hand" transform="translate(7 23) rotate(25) scale(0.02)" fill="#f2902b"
        d="M 433.033 347.621 c 14.372 -14.372 14.372 -36.828 0 -51.2 s -36.828 -14.372 -51.2 0 l 31.439 -31.439 c 14.372 -14.372 14.372 -36.828 0 -51.2 s -36.828 -14.372 -51.2 0 l 25.151 -25.151 c 14.372 -14.372 14.372 -36.828 0 -51.2 s -36.828 -14.372 -51.2 0 l -25.151 25.151 L 414.17 61.979 c 14.372 -14.372 14.372 -36.828 0 -51.2 s -36.828 -14.372 -51.2 0 L 197.693 176.056 l 5.389 -28.744 c 8.982 -35.032 -10.779 -75.453 -38.625 -88.926 c -3.593 -0.898 -7.186 -1.796 -10.779 -2.695 c -13.474 -2.695 -17.067 5.389 -18.863 6.288 c -2.695 1.796 -2.695 75.453 -19.761 133.839 c -100.054 264.182 101.946 349.182 216.478 254.202 l 101.501 -102.399 z" />
    <g transform="translate(-2 -3.5) scale(0.75)">
        <path
            d="M 16.8417 8.2003 c -0.1319 0.2076 -0.1024 0.4789 0.078 0.7698 c 0.1786 0.2862 0.5495 0.662 0.7858 0.7994 l 0.1735 0.0965 l -0.6629 0.2253 c -0.7445 0.2497 -1.0674 0.4151 -1.6388 0.8625 c -2.1222 1.6397 -3.3501 3.7627 -3.8755 6.7049 l -0.1313 0.7502 l -1.137 0.4138 c -0.7565 0.2753 -1.307 0.5023 -1.6517 0.681 c -1.26 0.6608 -2.065 1.4752 -1.9008 1.9263 c 0.1984 0.545 2.0677 0.5351 5.1176 -0.0323 c 1.8287 -0.341 3.38 -0.7567 6.1129 -1.6396 c 1.9332 -0.6238 1.8183 -0.6033 2.7808 -0.4002 c 1.7947 0.3844 2.6842 0.6353 4.9155 1.3715 c 3.0422 1.0051 4.1389 1.3136 5.0317 1.3984 c 0.3076 0.0264 0.6096 0.0229 0.7715 -0.0148 c 0.2452 -0.0573 0.2794 -0.0804 0.3669 -0.2346 c 0.0875 -0.1542 0.085 -0.1905 -0.0262 -0.4959 c -0.1026 -0.2819 -0.1569 -0.3579 -0.4231 -0.6069 c -0.5469 -0.5086 -1.8877 -1.3562 -3.3061 -2.0956 l -0.5759 -0.2959 l -0.0878 -0.6066 c -0.4058 -2.7522 -2.0447 -5.1939 -4.595 -6.8356 c -0.5554 -0.3565 -1.7201 -0.8957 -2.1546 -0.993 c -0.1687 -0.0397 -0.2982 -0.0883 -0.2956 -0.1106 c 0.0073 -0.0239 0.091 -0.0863 0.1922 -0.1444 c 0.659 -0.3676 1.613 -1.6353 1.5492 -2.059 c -0.0813 -0.4865 -0.7729 -0.5009 -1.5195 -0.0376 c -0.3951 0.2449 -0.9477 0.8025 -1.2359 1.2533 c -0.1883 0.2867 -0.2361 0.3307 -0.3809 0.3568 c -0.1952 0.0338 -0.2674 -0.0038 -0.3845 -0.1793 c -0.1551 -0.2362 -0.6704 -0.6871 -0.9755 -0.8528 c -0.4465 -0.2472 -0.7579 -0.2403 -0.9167 0.025 z"
            fill="#7f5535" stroke="#000" stroke-width="0.5" />
        <path id="rim-bottom"
            d="M 11.5703 18.4089 q 4.4297 -1.4089 8.4297 -1.4089 q 4 0 7.6463 1.3841" stroke="#000"
            stroke-width="0.5" />
        <path id="back-dark"
            d="M 19.899 19.243 c 0.373 -0.049 0.739 0.068 0.9968 0.1108 c 1.7947 0.3844 2.6842 0.6353 4.9155 1.3715 c 3.0422 1.0051 4.1389 1.3136 5.0317 1.3984 c 0.3076 0.0264 0.6096 0.0229 0.7715 -0.0148 c 0.2452 -0.0573 0.2794 -0.0804 0.3669 -0.2346 c 0.0875 -0.1542 0.085 -0.1905 -0.0262 -0.4959 c -0.1026 -0.2819 -0.1569 -0.3579 -0.4231 -0.6069 c -0.5469 -0.5086 -1.8877 -1.3562 -3.3061 -2.0956 l -0.5759 -0.2959 q -0.4683 -0.1601 -1.1213 -0.3921 c -2.76 -0.874 -1.896 0.053 -6.6318 1.2551 z"
            fill="#502f19" stroke="#000" stroke-width="0.5" />
        <path d="M 17.737 9.914 q 1.676 -0.37 3.065 0.035" stroke="#000" stroke-width="0.5"
            stroke-linecap="round" />
        <path
            d="M 18.758 9.831 q 4.956 2.519 5.616 7.47 q 1.381 0.268 2.287 0.59 q -1.37 -5.732 -5.152 -7.607 q -1.36 -0.537 -2.751 -0.442 z"
            fill="#a18060" stroke="#000" stroke-width="0.25" />
    </g>
</svg>